<svg width="24" height="24" viewBox="0 0 24 24" fill="none" xmlns="http://www.w3.org/2000/svg">
<path d="M23.4141 18L6 0.585901C5.61907 0.222175 5.11264 0.0192223 4.58595 0.0192223C4.05926 0.0192223 3.55283 0.222175 3.1719 0.585901L0.585899 3.1719C0.21144 3.54723 0.00114441 4.05577 0.00114441 4.58595C0.00114441 5.11613 0.21144 5.62467 0.585899 6L17.999 23.4141C18.3744 23.7885 18.8829 23.9987 19.413 23.9987C19.9432 23.9987 20.4517 23.7885 20.8271 23.4141L23.4141 20.8276C23.5999 20.6419 23.7472 20.4215 23.8477 20.1789C23.9483 19.9362 24 19.6762 24 19.4136C24 19.1509 23.9483 18.8909 23.8477 18.6482C23.7472 18.4056 23.5999 18.1857 23.4141 18ZM2 4.5859L4.5859 2L9.5859 7L6.9993 9.5869L1.9993 4.5869L2 4.5859Z" fill="#0050C0"/>
</svg>
