<svg width="32" height="32" viewBox="0 0 32 32" fill="none" xmlns="http://www.w3.org/2000/svg">
<g clip-path="url(#clip0_1_2)">
<path d="M29.4141 24L12 6.5859C11.6191 6.22218 11.1126 6.01922 10.5859 6.01922C10.0593 6.01922 9.55283 6.22218 9.1719 6.5859L6.5859 9.1719C6.21144 9.54723 6.00114 10.0558 6.00114 10.586C6.00114 11.1161 6.21144 11.6247 6.5859 12L23.999 29.4141C24.3744 29.7885 24.8829 29.9987 25.413 29.9987C25.9432 29.9987 26.4517 29.7885 26.8271 29.4141L29.4141 26.8276C29.5999 26.6419 29.7472 26.4215 29.8477 26.1789C29.9483 25.9362 30 25.6762 30 25.4136C30 25.1509 29.9483 24.8909 29.8477 24.6482C29.7472 24.4056 29.5999 24.1857 29.4141 24ZM8 10.5859L10.5859 8L15.5859 13L12.9993 15.5869L7.9993 10.5869L8 10.5859Z" fill="#0050C0"/>
<path d="M4.00003 14L2.00005 16L4.00003 18L6.00001 16L4.00003 14Z" fill="#0050C0"/>
<path d="M16 2.00004L14.0001 4.00002L16 6L18 4.00002L16 2.00004Z" fill="#0050C0"/>
<path d="M3.99995 2.00002L1.99997 4L3.99995 5.99998L5.99993 4L3.99995 2.00002Z" fill="#0050C0"/>
</g>
<defs>
<clipPath id="clip0_1_2">
<rect width="32" height="32" fill="white"/>
</clipPath>
</defs>
</svg>
